SplineFontDB: 3.2
FontName: MarinaSemren_font
FullName: MarinaSemren_font
FamilyName: MarinaSemren_font
Weight: Regular
Copyright: Copyright (c) 2023, Marina
UComments: "2023-3-16: Created with FontForge (http://fontforge.org)"
Version: 001.000
ItalicAngle: 0
UnderlinePosition: -100
UnderlineWidth: 50
Ascent: 800
Descent: 200
InvalidEm: 0
LayerCount: 2
Layer: 0 0 "Stra+AX4A-nji" 1
Layer: 1 0 "Prednji" 0
XUID: [1021 1019 -1128733650 7351]
OS2Version: 0
OS2_WeightWidthSlopeOnly: 0
OS2_UseTypoMetrics: 1
CreationTime: 1678991621
ModificationTime: 1686693274
OS2TypoAscent: 0
OS2TypoAOffset: 1
OS2TypoDescent: 0
OS2TypoDOffset: 1
OS2TypoLinegap: 0
OS2WinAscent: 0
OS2WinAOffset: 1
OS2WinDescent: 0
OS2WinDOffset: 1
HheadAscent: 0
HheadAOffset: 1
HheadDescent: 0
HheadDOffset: 1
OS2Vendor: 'PfEd'
MarkAttachClasses: 1
DEI: 91125
Encoding: iso8859-2
UnicodeInterp: none
NameList: AGL For New Fonts
DisplaySize: -48
AntiAlias: 1
FitToEm: 0
WinInfo: 0 38 13
BeginPrivate: 0
EndPrivate
BeginChars: 256 25

StartChar: M
Encoding: 77 77 0
Width: 608
Flags: HW
LayerCount: 2
Fore
SplineSet
68 0 m 9
 68 800 l 17
 108.000000005 787.562524524 147.999999996 785.090211014 188 802 c 9
 290 454 l 25
 378 800 l 17
 420.666666669 790.806777275 463.333333332 774.527961971 506 798 c 9
 532 0 l 17
 487.333333329 -18.2158907461 442.666666671 -13.6466198543 398 0 c 1
 378 336 l 1
 324 152 l 1
 298.666666667 139.830600913 273.333333333 147.876750607 248 156 c 1
 196 334 l 25
 196 334 182 20 182 0 c 0
 182 -20 68 0 68 0 c 9
EndSplineSet
Validated: 33
EndChar

StartChar: A
Encoding: 65 65 1
Width: 676
Flags: HW
LayerCount: 2
Fore
SplineSet
403 405 m 1
 353 621 l 1
 301 407 l 17
 335.000000002 389.622039232 368.999999998 398.916276908 403 405 c 1
90 0 m 1
 286 798 l 1
 333.702380673 785.855538975 377.607569357 788.901853483 420 798 c 1
 420 798 612.000000402 4 612 0 c 0
 611.999998903 -10.9214766149 465.99999834 -20.5752361659 466 0 c 0
 466.000000161 2 414 268 414 268 c 1
 376.0232575 254.895083456 339.073533268 233.88780384 296 260 c 1
 296 260 232.000000181 2 232 0 c 0
 231.999998941 -11.7109482563 89.9999983788 -14.866913354 90 0 c 1
EndSplineSet
Validated: 33
EndChar

StartChar: R
Encoding: 82 82 2
Width: 588
Flags: HW
LayerCount: 2
Fore
SplineSet
316 544 m 1
 314 660 l 1
 266 644 222.000000003 636.108327616 176 658 c 1
 172 552 l 1
 219.999999985 531.89400654 266 536 316 544 c 1
74 0 m 9
 70 792 l 1
 198.468298564 770.198218389 318.08302401 777.325417611 436 790 c 1
 446 424 l 1
 392.666666658 404.001508236 339.333333342 392.001508218 286 388 c 1
 540 46 l 1
 548.287426847 37.1453953382 441.657660779 -14.8661219379 424 0 c 0
 420.940057488 2.57618939917 212 256 212 256 c 25
 214 0 l 1
 164.666701304 -13.3348761564 118.000034588 -13.3348761502 74 0 c 9
EndSplineSet
Validated: 33
EndChar

StartChar: I
Encoding: 73 73 3
Width: 362
Flags: HW
LayerCount: 2
Fore
SplineSet
100 794 m 9
 100 794 103.389066533 1.90440549759 104 0 c 0
 111.236381628 -22.5572925806 241.07219646 -8.11771888818 238 0 c 9
 250 798 l 17
 203.389758064 772.620197676 151.846395637 782.235261263 100 794 c 9
EndSplineSet
Validated: 41
EndChar

StartChar: N
Encoding: 78 78 4
Width: 634
Flags: HW
LayerCount: 2
Fore
SplineSet
62 2 m 9
 64 794 l 1
 112.666666667 786.996406224 161.333333333 756.122098489 210 796 c 1
 360 284 l 25
 382 792 l 1
 427.333333342 781.324407832 472.666666659 782.263914975 518 804 c 1
 464 120 l 5
 419.5263162 92.4298956617 367.076003238 84.4479928218 312 96 c 13
 182 368 l 1
 182 368 168 8 168 2 c 0
 168 -4 62 2 62 2 c 9
EndSplineSet
Validated: 33
EndChar

StartChar: S
Encoding: 83 83 5
Width: 610
Flags: HW
LayerCount: 2
Fore
SplineSet
59 0 m 9
 509 0 l 1
 505 446 l 1
 207 452 l 1
 213 664 l 1
 519 664 l 1
 542.415372731 709.333333344 545.715572261 754.666666657 513 800 c 9
 59 800 l 1
 63 318 l 1
 383 316 l 1
 381 100 l 1
 63 108 l 17
 33.2395936742 57.9829064863 46.5921745732 29.2243777777 59 0 c 9
EndSplineSet
Validated: 41
EndChar

StartChar: E
Encoding: 69 69 6
Width: 660
Flags: HW
LayerCount: 2
Fore
SplineSet
590 0 m 5
 590 0 60 -4 60 0 c 8
 60 4 80 800 80 800 c 25
 584 802 l 17
 597.439140909 743.333333337 607.116284828 684.666666664 566 626 c 9
 228 622 l 25
 218 444 l 25
 420 438 l 17
 444.506992796 388.666666673 427.941819398 339.333333324 422 290 c 1
 214 296 l 1
 214 136 l 1
 588 140 l 5
 601.972260077 97.158637096 612.554420135 53.3426342907 590 0 c 5
EndSplineSet
Validated: 33
EndChar

StartChar: ccaron
Encoding: 232 269 7
Width: 596
Flags: HW
LayerCount: 2
Fore
SplineSet
172 648 m 1
 208.419180208 611.781154923 242.656255921 562.309132527 284 556 c 1
 333.327184323 568.226892628 368.429973574 604.80163386 402 644 c 1
 404.140903338 662.000030447 394.492127514 680.000038655 360 698 c 1
 323.150455802 679.281438283 293.553710938 660.625 286 626 c 1
 272.306955664 674.41651751 244.518072351 692.980408883 216 710 c 1
 154.784877802 693.388079145 177.00683526 669.508115872 172 648 c 1
500 0 m 1
 511.859375 -2.912109375 269.97265625 -32.3056640625 96 0 c 0
 58.9345703125 6.8828125 28.0126953125 355.287109375 140 472 c 1
 392 502 378 462 520 382 c 1
 507.744373296 349.451821157 495.55947846 316.859590815 426 320 c 1
 303.450195312 347.958984375 295.059570312 383.961914062 204 358 c 1
 193.869140625 353.4375 130 304 168 132 c 1
 271.692382812 30.8955078125 398 88 450 98 c 1
 516.043381005 82.0468835597 490.568219906 35.11560726 500 0 c 1
EndSplineSet
Validated: 41
EndChar

StartChar: scaron
Encoding: 185 353 8
Width: 558
Flags: HW
LayerCount: 2
Fore
SplineSet
130 626 m 25
 206 570 l 25
 282 638 l 1
 250 671 l 1
 204 642 l 5
 213.643567577 616.803056998 157.011540189 666.864632954 140 672 c 5
 130 626 l 25
66 62 m 1
 66 62 174 -4 174 0 c 0
 174 4 354 -4 354 0 c 8
 354 4 452 110 452 110 c 25
 450 228 l 25
 300 314 l 25
 208 316 l 1
 146 382 l 1
 230 428 l 1
 340 436 l 1
 412 490 l 1
 322 524 l 1
 218 512 l 1
 112 472 l 1
 60 438 l 1
 66 344 l 1
 88 266 l 1
 196 224 l 25
 318 204 l 25
 334 136 l 25
 306 96 l 25
 218 76 l 1
 150 152 l 1
 60 134 l 1
 66 62 l 1
EndSplineSet
Validated: 41
EndChar

StartChar: a
Encoding: 97 97 9
Width: 468
Flags: HW
LayerCount: 2
Fore
SplineSet
120 176 m 1
 116.94921875 178.112304688 139.0390625 129.896484375 162 114 c 1
 246 126 l 1
 269.05078125 181.098632812 239.858398438 169.190429688 236 192 c 1
 184 218 l 1
 120 176 l 1
354 46 m 1
 268 46 l 1
 98 54 l 1
 41.109278079 91.6839174849 23.7158203125 127.731445312 32 176 c 1
 41.2490234375 234.934570312 20.8837890625 283.140625 126 298 c 1
 182.277659208 309.635287019 284 300 284 300 c 1
 284 300 91.5390625 390.209960938 136 368 c 1
 174.081054688 399.66796875 91.0986328125 362.84765625 284 300 c 1
 276 358 l 1
 208 396 l 1
 116 408 l 1
 28 384 l 1
 76 450 l 1
 76 450 l 1
 76 450 l 1
 192 448 l 1
 192 448 192 448 290 430 c 1
 374 346 l 1
 370 190 l 1
 368 96 l 1
 436 90 l 1
 436 90 434 42 434 48 c 0
 434 54 384 33 354 46 c 1
EndSplineSet
Validated: 37
EndChar

StartChar: r
Encoding: 114 114 10
Width: 430
Flags: HW
LayerCount: 2
Fore
SplineSet
48 0 m 13
 50 414 l 17
 67.333333315 421.334841559 87.3333333517 422.001508268 110 416 c 9
 120 294 l 25
 184 392 l 25
 286 432 l 25
 354 366 l 25
 392 300 l 25
 366 246 l 25
 326 256 l 25
 296 312 l 25
 252 340 l 25
 212 286 l 25
 160 210 l 25
 146 90 l 25
 146 90 143.044903618 5.90831417824 142 0 c 4
 140.20785997 -10.1334957252 44.5686444225 -30.8903096962 48 0 c 13
EndSplineSet
Validated: 33
EndChar

StartChar: i
Encoding: 105 105 11
Width: 199
Flags: HW
LayerCount: 2
Fore
SplineSet
66 428 m 1
 88.0000000044 418.108750375 109.999999997 405.937072356 132 430 c 1
 120.520673119 440.801208049 140.442200676 420.582679212 128 436 c 1
 127.237304688 459.20703125 110.169921875 462.393554688 91 463 c 1
 72.8239489298 457.376861126 62.5023282963 446.931022881 66 428 c 1
56 0 m 9
 58 342 l 17
 79.11299892 350.650796319 104.235808921 354.39158157 136 350 c 9
 136 350 133.833051273 5.59502754373 136 0 c 0
 139.341258899 -8.62707794464 60.6150790803 -20.203499183 56 0 c 9
EndSplineSet
Validated: 41
EndChar

StartChar: n
Encoding: 110 110 12
Width: 532
Flags: HW
LayerCount: 2
Fore
SplineSet
60 0 m 1
 64 438 l 25
 154 444 l 25
 166 294 l 17
 180.809805708 350.446405898 172.223749757 423.158275832 244 440 c 9
 326 446 l 25
 406 404 l 25
 448 302 l 25
 448 302 460.000000118 4 460 0 c 0
 459.999999571 -14.5114969083 357.999998643 -27.2637416885 358 0 c 0
 358.000000299 6 322 212 322 212 c 1
 325.287867508 252.408933395 306.352655221 276.216193409 274 290 c 1
 260.180664062 279.983398438 197.630859375 282.16796875 216 254 c 1
 185.551757812 219.068359375 198.110351562 223.2734375 190 198 c 1
 174.881835938 207.241210938 139.605702475 22.0810460549 140 20 c 0
 142.78116815 5.32139149207 62.3644474722 -13.3531982932 60 0 c 1
EndSplineSet
Validated: 33
EndChar

StartChar: e
Encoding: 101 101 13
Width: 480
Flags: HW
LayerCount: 2
Fore
SplineSet
198 244 m 1
 203.516983078 212.010018783 232.064736862 225.510771683 252 222 c 1
 284.447644361 219.382870646 287.165300487 241.396911917 294 260 c 1
 281.548049476 281.698317843 272.183198555 306.545194004 234 302 c 1
 193.019548644 286.504057368 200.895302275 264.538914349 198 244 c 1
402 0 m 1
 402 0 101.869181419 13.2460776353 96 12 c 0
 77.25544521 8.02036999013 33.1411826766 124.218748834 44 130 c 1
 41.218505619 179.452198301 24.0364581774 219.65081402 60 294 c 1
 84.6943490185 323.283802259 105.25996849 352.289665696 166 384 c 1
 184.357253901 390.60165291 202.793721393 397.226754112 242 410 c 9
 332 370 l 17
 367.998457951 344.666665823 390.665124624 313.999999217 400 278 c 1
 412.928466687 244 391.732760642 210 388 176 c 1
 356.001651023 135.169865603 324.00054096 133.634569107 292 124 c 9
 176 138 l 25
 136 166 l 25
 138 92 l 25
 186 66 l 25
 270 70 l 25
 350 90 l 25
 406 74 l 17
 446.959819272 37.5989209528 415.056902387 21.4139133161 402 0 c 1
EndSplineSet
Validated: 33
EndChar

StartChar: m
Encoding: 109 109 14
Width: 530
Flags: HW
LayerCount: 2
Fore
SplineSet
34 0 m 9
 36 390 l 17
 63.9999999975 399.333115789 92.0000000032 395.994321912 120 392 c 9
 122 262 l 25
 202 354 l 17
 226.243568614 363.718249613 220.162411974 382.823086679 272 384 c 1
 306.883230365 365.752197313 290.266555824 312.631919194 298 276 c 9
 348 352 l 17
 366.159352052 368.964115947 381.098282783 396.280401823 404 398 c 1
 422.29374198 383.468739297 439.24045754 367.492076535 438 332 c 9
 454 244 l 25
 454 244 462.000000077 2 462 0 c 0
 461.999999124 -22.8807847562 385.999999444 -19.7828536386 386 0 c 0
 386.000000112 4 370 182 370 182 c 17
 338.001718867 127.514685473 306.000755778 117.475136028 274 104 c 1
 222.935271489 129.420066182 235.380082601 168.647679482 230 204 c 5
 203.388837544 173.473801234 178.400534724 144.749327744 166 130 c 13
 166 130 113.999922901 1.99999999851 114 0 c 0
 114.000246733 -6.40037145022 34.0013154638 -23.4607333077 34 0 c 9
EndSplineSet
Validated: 33
EndChar

StartChar: dcroat
Encoding: 240 273 15
Width: 730
Flags: HW
LayerCount: 2
Fore
SplineSet
304 100 m 9
 214 96 l 17
 172.086506111 109.593860626 169.668144342 131.838619315 176 156 c 1
 192.971526234 169.271980423 204.13012679 183.705814688 236 194 c 9
 290 176 l 17
 321.954564315 154.134514999 313.055188193 127.077158091 304 100 c 9
514 0 m 1
 508.916992188 156.241210938 504.704101562 256.241210938 500 388 c 0
 654 400 l 0
 650 478 l 0
 516.731034483 492 l 0
 514 580 l 1
 471.337073813 609.881704709 433.413206096 601.027845579 396 588 c 1
 396.56 490 l 0
 230 484 l 0
 230 406 l 0
 400 412 l 0
 398 238 l 1
 286 294 l 1
 186 292 l 25
 104 244 l 1
 78 126 l 25
 126 56 l 25
 126 56 184 -2 184 0 c 8
 184 2 304 8 304 0 c 8
 304 -8 440 4 440 0 c 0
 440 -4 514 0 514 0 c 1
EndSplineSet
Validated: 41
EndChar

StartChar: Dcroat
Encoding: 208 272 17
Width: 586
Flags: HW
LayerCount: 2
Fore
SplineSet
226 94 m 1
 346 187 l 1
 375 386 l 1
 322 508 l 29
 191 560 l 1
 185 440 l 25
 189 374 l 25
 257 382 l 25
 275 314 l 25
 203 278 l 1
 226 94 l 1
135 0 m 1
 85 294 l 0
 25 266 l 0
 13 376 l 0
 81 374 l 0
 77 708 l 1
 389 620 l 25
 507 432 l 1
 461 148 l 25
 461 148 319 -4 319 0 c 0
 319 4 135 0 135 0 c 1
EndSplineSet
Validated: 33
EndChar

StartChar: Ccaron
Encoding: 200 268 18
Width: 604
Flags: HW
LayerCount: 2
Fore
SplineSet
153 732 m 25
 265 630 l 25
 307 632 l 25
 385 720 l 25
 309 736 l 25
 279 696 l 25
 209 746 l 25
 153 732 l 25
465 46 m 9
 465 46 266.06868213 1.69053793354 265 0 c 4
 248.925511805 -25.4280775254 -8.63059330034 75.6649201271 41 148 c 13
 37 438 l 17
 45.0987278405 521.704670988 101.475230002 568.879879456 187 594 c 9
 433 542 l 17
 524.408356556 475.05997159 426.372770578 455.997301806 427 412 c 9
 213 458 l 17
 87.1169811779 355.495273847 157.746367696 347.787267946 137 296 c 1
 148.336279765 210.669646885 195.669613107 152.002980213 279 120 c 9
 437 180 l 17
 457.794993236 139.599400105 510.026848544 110.899701633 465 46 c 9
EndSplineSet
Validated: 41
EndChar

StartChar: Cacute
Encoding: 198 262 19
Width: 614
Flags: HW
LayerCount: 2
Fore
SplineSet
297 710 m 25
 359 774 l 25
 411 752 l 25
 353 692 l 25
 297 710 l 25
503 44 m 25
 503 44 287 0 281 0 c 8
 275 0 145 0 141 0 c 8
 137 0 41 184 41 184 c 25
 69 518 l 25
 197 638 l 1
 375 605 l 25
 497 432 l 1
 419 408 l 25
 329 482 l 25
 217 480 l 17
 167.352127323 411.066407909 142.511293361 324.929195794 139 224 c 1
 166.063053621 180 176.388431517 136 219 92 c 1
 347 111 l 29
 453 144 l 1
 503 44 l 25
EndSplineSet
Validated: 1
EndChar

StartChar: Zcaron
Encoding: 174 381 20
Width: 660
Flags: HW
LayerCount: 2
Fore
SplineSet
179 770 m 25
 237 772 l 1
 283 704 l 29
 307 768 l 1
 359 770 l 25
 315 658 l 25
 251 654 l 25
 179 770 l 25
555 18 m 1
 63 12 l 1
 65 124 l 1
 433 508 l 25
 61 506 l 1
 55 628 l 25
 551 632 l 1
 557 444 l 25
 269 126 l 1
 555 126 l 1
 555 18 l 1
EndSplineSet
Validated: 1
EndChar

StartChar: cacute
Encoding: 230 263 21
Width: 606
Flags: HW
LayerCount: 2
Fore
SplineSet
329 448 m 25
 393 518 l 25
 323 542 l 25
 269 468 l 25
 329 448 l 25
467 12 m 9
 119 24 l 25
 61 212 l 25
 181 374 l 25
 457 370 l 1
 454.649651699 330.358404137 457.099114977 285.006056424 429 276 c 9
 211 264 l 1
 204.976833868 232.000213269 185.96484375 188.000976562 157 156 c 5
 204.716796875 149.923828125 177.8203125 108.389648438 187 84 c 13
 449 112 l 17
 467.169475725 112.665572821 465.184467284 57.0238378141 467 12 c 9
EndSplineSet
Validated: 41
EndChar

StartChar: zcaron
Encoding: 190 382 22
Width: 598
Flags: HW
LayerCount: 2
Fore
SplineSet
179 478 m 25
 225 426 l 25
 259 424 l 25
 293 486 l 25
 247 498 l 25
 237 474 l 25
 205 506 l 25
 179 478 l 25
443 0 m 9
 443 0 71 -8 71 0 c 8
 71 8 65 94 65 94 c 1
 329 230 l 1
 321 280 l 1
 67 296 l 1
 65 386 l 25
 443 376 l 1
 443 208 l 5
 443 208 207 80 205 80 c 0
 203 80 433 72 433 72 c 1
 443 0 l 9
EndSplineSet
Validated: 41
EndChar

StartChar: j
Encoding: 106 106 23
Width: 294
Flags: HW
LayerCount: 2
Fore
SplineSet
129 492 m 25
 197 488 l 25
 193 580 l 25
 133 568 l 25
 129 492 l 25
127 372 m 25
 127 372 123 -4 123 0 c 0
 123 4 121 -100 123 -100 c 0
 125 -100 43 0 43 0 c 1
 19 -84 l 1
 83 -148 l 25
 83 -148 167 -158 167 -156 c 8
 167 -154 201 -102 201 -102 c 25
 201 372 l 25
 127 372 l 25
EndSplineSet
Validated: 37
EndChar

StartChar: Scaron
Encoding: 169 352 24
Width: 628
Flags: HW
LayerCount: 2
Fore
SplineSet
185 748 m 9
 247 702 l 25
 281 714 l 25
 321 754 l 25
 285 776 l 25
 285 776 255 748 253 746 c 8
 251 744 211 780 211 780 c 25
 185 748 l 9
67 144 m 25
 67 144 137 -8 137 0 c 8
 137 8 451 0 451 0 c 25
 531 142 l 25
 423 328 l 25
 179 338 l 1
 111 444 l 1
 177 554 l 1
 397 544 l 1
 477 590 l 1
 391 640 l 1
 172 634 l 1
 25 482 l 0
 32 482 123 264 123 264 c 1
 391 234 l 25
 417 118 l 25
 393 66 l 25
 187 66 l 25
 163 190 l 25
 99 204 l 25
 67 144 l 25
EndSplineSet
Validated: 41
EndChar
